<?xml version="1.0" encoding="UTF-8" standalone="no"?>
<!-- Generator: Adobe Illustrator 17.1.0, SVG Export Plug-In . SVG Version: 6.00 Build 0)  -->

<svg
   xmlns:dc="http://purl.org/dc/elements/1.1/"
   xmlns:cc="http://creativecommons.org/ns#"
   xmlns:rdf="http://www.w3.org/1999/02/22-rdf-syntax-ns#"
   xmlns:svg="http://www.w3.org/2000/svg"
   xmlns="http://www.w3.org/2000/svg"
   xmlns:sodipodi="http://sodipodi.sourceforge.net/DTD/sodipodi-0.dtd"
   xmlns:inkscape="http://www.inkscape.org/namespaces/inkscape"
   version="1.1"
   id="Layer_1"
   x="0px"
   y="0px"
   viewBox="0 0 285 120"
   enable-background="new 0 0 1224 792"
   xml:space="preserve"
   inkscape:version="0.48.5 r10040"
   width="100%"
   height="100%"
   sodipodi:docname="Execution.svg"><metadata
     id="metadata10"><rdf:RDF><cc:Work
         rdf:about=""><dc:format>image/svg+xml</dc:format><dc:type
           rdf:resource="http://purl.org/dc/dcmitype/StillImage" /><dc:title></dc:title></cc:Work></rdf:RDF></metadata><defs
     id="defs8" /><sodipodi:namedview
     pagecolor="#ffffff"
     bordercolor="#666666"
     borderopacity="1"
     objecttolerance="10"
     gridtolerance="10"
     guidetolerance="10"
     inkscape:pageopacity="0"
     inkscape:pageshadow="2"
     inkscape:window-width="1301"
     inkscape:window-height="744"
     id="namedview6"
     showgrid="false"
     inkscape:zoom="1.9084967"
     inkscape:cx="126.60102"
     inkscape:cy="90.020502"
     inkscape:window-x="65"
     inkscape:window-y="24"
     inkscape:window-maximized="1"
     inkscape:current-layer="Layer_1" /><g
     id="imagenes"
     transform="translate(1.1125768,-652.48815)" /><rect
     style="fill:#263248;fill-opacity:1;fill-rule:evenodd;stroke:#263248;stroke-width:51.2746582;stroke-linecap:butt;stroke-linejoin:round;stroke-miterlimit:4;stroke-opacity:1;stroke-dasharray:none"
     id="rect2983"
     width="233.72534"
     height="68.725342"
     x="25.637329"
     y="25.637329" /><g
     transform="matrix(0.89022441,0,0,0.89022441,86.415966,3.9154172)"
     id="g3853"
     style="fill:#ffffff"><path
       inkscape:connector-curvature="0"
       d="m 17.941,59.495 3.987,3.482 c 0,0 -0.324,-6.113 0.082,-12.728 0.152,0.006 0.302,0.022 0.458,0.022 0.49,0 0.97,-0.05 1.442,-0.124 1.778,6.404 2.842,12.829 2.842,12.829 l 3.09,-4.253 4.908,1.22 -6.189,-11.937 c 2.004,-1.722 3.281,-4.269 3.281,-7.111 0,-5.17 -4.205,-9.377 -9.375,-9.377 -5.17,0 -9.377,4.207 -9.377,9.377 0,3.177 1.593,5.986 4.019,7.684 l -5.312,13.418 6.144,-2.502 z m 4.527,-23.45 c 2.673,0 4.849,2.175 4.849,4.85 0,2.673 -2.175,4.849 -4.849,4.849 -2.676,0 -4.851,-2.175 -4.851,-4.849 0,-2.674 2.175,-4.85 4.851,-4.85 z"
       id="path3855"
       style="fill:#ffffff" /><rect
       x="43.617001"
       y="34.202"
       width="20.150999"
       height="4.2979999"
       id="rect3857"
       style="fill:#ffffff" /><rect
       x="37.964001"
       y="45.098999"
       width="25.804001"
       height="4.2989998"
       id="rect3859"
       style="fill:#ffffff" /><rect
       x="37.964001"
       y="56.502998"
       width="25.804001"
       height="4.2979999"
       id="rect3861"
       style="fill:#ffffff" /><rect
       x="13.111"
       y="69.183998"
       width="51.060001"
       height="4.2989998"
       id="rect3863"
       style="fill:#ffffff" /><rect
       x="13.111"
       y="82.079002"
       width="51.060001"
       height="4.3000002"
       id="rect3865"
       style="fill:#ffffff" /><rect
       x="13.111"
       y="96.32"
       width="51.060001"
       height="4.2989998"
       id="rect3867"
       style="fill:#ffffff" /><path
       inkscape:connector-curvature="0"
       d="m 109.782,32.19 c -0.153,-0.093 -0.316,-0.156 -0.476,-0.229 -1.299,-0.853 -2.753,-1.48 -4.233,-1.842 l -2.953,2.972 -2.863,-3.005 c -0.01,0.003 -0.021,0.003 -0.029,0.005 -1.42,0.34 -2.814,0.929 -4.074,1.722 -0.314,0.096 -0.625,0.22 -0.923,0.388 -1.835,1.032 -3.581,1.232 -5.493,0.637 C 82.41,30.865 76.514,21.209 74.779,17.659 73.668,15.373 70.915,14.42 68.629,15.53 c -1.229,0.598 -2.056,1.674 -2.4,2.894 H 1.021 V 119.548 H 74.908 V 34 c 3.029,3.276 6.771,6.271 11.07,7.617 1.332,0.417 2.673,0.65 4.01,0.72 v 24.251 c 0,1.252 0.246,2.418 0.676,3.49 -0.03,0.231 -0.07,0.461 -0.07,0.7 l 0.045,44.067 c 0.004,3.001 2.437,5.433 5.438,5.433 0.002,0 0.004,0 0.006,0 3.003,-0.002 5.436,-2.44 5.433,-5.444 L 101.477,77.02 c 0.214,0.011 0.427,0.028 0.642,0.028 0.044,0 0.089,-0.005 0.133,-0.005 l 0.035,37.802 c 0.003,3.001 2.437,5.433 5.439,5.433 0.001,0 0.003,0 0.004,0 3.004,-0.002 5.437,-2.44 5.434,-5.443 L 113.125,71.61 c 0.286,0.272 0.597,0.523 0.96,0.721 0.699,0.38 1.452,0.56 2.196,0.56 1.631,0 3.211,-0.869 4.046,-2.403 C 133.311,46.622 115.602,35.759 109.782,32.19 z M 68.459,26.219 v 86.878 H 7.469 V 24.871 h 60.758 c 0.081,0.137 0.165,0.277 0.25,0.421 l -0.018,0.927 z m 33.689,30.332 h -0.056 l -2.858,-3.912 2.858,-19.108 h 0.056 l 2.857,19.108 -2.857,3.912 z m 12.104,5.218 v -13.16 c 1.757,3.326 2.151,7.534 0,13.16 z"
       id="path3869"
       style="fill:#ffffff" /><circle
       d="m 113.973,17.577 c 0,6.546783 -5.30721,11.854 -11.854,11.854 -6.54678,0 -11.853997,-5.307217 -11.853997,-11.854 0,-6.546784 5.307217,-11.8540004 11.853997,-11.8540004 6.54679,0 11.854,5.3072164 11.854,11.8540004 z"
       sodipodi:ry="11.854"
       sodipodi:rx="11.854"
       sodipodi:cy="17.577"
       sodipodi:cx="102.119"
       cx="102.119"
       cy="17.577"
       r="11.854"
       id="circle3871"
       style="fill:#ffffff" /></g></svg>