<?xml version="1.0" encoding="UTF-8" standalone="no"?>
<!-- Generator: Adobe Illustrator 17.1.0, SVG Export Plug-In . SVG Version: 6.00 Build 0)  -->

<svg
   xmlns:dc="http://purl.org/dc/elements/1.1/"
   xmlns:cc="http://creativecommons.org/ns#"
   xmlns:rdf="http://www.w3.org/1999/02/22-rdf-syntax-ns#"
   xmlns:svg="http://www.w3.org/2000/svg"
   xmlns="http://www.w3.org/2000/svg"
   xmlns:sodipodi="http://sodipodi.sourceforge.net/DTD/sodipodi-0.dtd"
   xmlns:inkscape="http://www.inkscape.org/namespaces/inkscape"
   version="1.1"
   id="Layer_1"
   x="0px"
   y="0px"
   viewBox="0 0 285 120"
   enable-background="new 0 0 1224 792"
   xml:space="preserve"
   inkscape:version="0.48.5 r10040"
   width="100%"
   height="100%"
   sodipodi:docname="Audit.svg"><metadata
     id="metadata10"><rdf:RDF><cc:Work
         rdf:about=""><dc:format>image/svg+xml</dc:format><dc:type
           rdf:resource="http://purl.org/dc/dcmitype/StillImage" /><dc:title></dc:title></cc:Work></rdf:RDF></metadata><defs
     id="defs8" /><sodipodi:namedview
     pagecolor="#ffffff"
     bordercolor="#666666"
     borderopacity="1"
     objecttolerance="10"
     gridtolerance="10"
     guidetolerance="10"
     inkscape:pageopacity="0"
     inkscape:pageshadow="2"
     inkscape:window-width="1301"
     inkscape:window-height="744"
     id="namedview6"
     showgrid="false"
     inkscape:zoom="0.47712418"
     inkscape:cx="36.763257"
     inkscape:cy="187.14459"
     inkscape:window-x="65"
     inkscape:window-y="24"
     inkscape:window-maximized="1"
     inkscape:current-layer="Layer_1" /><g
     id="imagenes"
     transform="translate(1.1125768,-652.48815)" /><rect
     style="fill:#263248;fill-opacity:1;fill-rule:evenodd;stroke:#263248;stroke-width:51.2746582;stroke-linecap:butt;stroke-linejoin:round;stroke-miterlimit:4;stroke-opacity:1;stroke-dasharray:none"
     id="rect2983"
     width="233.72534"
     height="68.725342"
     x="25.637329"
     y="25.637329" /><path
     inkscape:connector-curvature="0"
     d="m 168.76717,38.977504 v 26.312504 h 1.79695 l -2.69542,4.657405 -2.69543,-4.657405 h 1.79696 V 38.977504 h -1.79696 l 2.69543,-4.657404 2.69542,4.657404 h -1.79695 z M 149.45911,79.28056 v 1.796951 h -22.7736 V 79.28056 l -4.6574,2.695427 4.6574,2.695428 v -1.796953 h 22.82861 v 1.796953 l 4.65741,-2.695428 -4.65741,-2.695427 h -0.055 z m 31.83172,13.275437 c -0.2017,0.275044 -0.4034,0.531752 -0.62344,0.788458 -5.40918,6.472693 -11.07508,12.817025 -16.57595,19.253045 H 102.16995 V 7.4024984 h 80.62445 c 0,1.1185113 0,2.2370216 0,3.3555326 0,5.720907 0,11.441814 0,17.16272 0,8.122955 0,16.24591 0,24.368863 0,7.719557 0,15.45745 0,23.177008 0,2.842117 0,5.684234 0,8.526352 0,3.043815 0.40339,5.940942 -1.50357,8.563023 z m -7.26115,-0.935148 H 163.54135 V 103.28269 L 174.02968,91.620849 z M 177.56857,12.665 h -70.13611 v 94.70668 h 50.82805 V 88.980431 c 0,-1.4669 1.17352,-2.640419 2.64041,-2.640419 h 16.66765 0 V 12.665 z m -39.00118,19.253052 c 0.11006,0 0.27504,0.05501 0.38507,0.05501 h 29.81471 c 0.51342,0 0.89848,-0.385062 0.89848,-0.898477 0,-0.513414 -0.38506,-0.898475 -0.89848,-0.898475 h -29.79638 c -0.44007,0 -0.84347,0.385061 -0.84347,0.953485 0,0.220035 0.11005,0.440069 0.22003,0.568424 l 0.22004,0.220034 z M 118.03081,49.48417 h -6.72941 l 26.20249,-17.951179 26.20249,17.951179 h -7.18782 l 0,22.773609 h 12.3403 c 0.51342,0 0.89848,0.385062 0.89848,0.898476 0,0.513415 -0.38506,0.898476 -0.89848,0.898476 h -12.3403 v 8.746386 c 0,0.513416 -0.38506,0.898476 -0.89847,0.898476 -0.51341,0 -0.89847,-0.38506 -0.89847,-0.898476 v -8.746386 h -3.48389 V 56.543623 h -8.74638 v 17.511108 h -22.6636 v 12.34029 c 0,0.513414 -0.38506,0.898475 -0.89848,0.898475 -0.51341,0 -0.89846,-0.385061 -0.89846,-0.898475 l 0,-36.910851 z m 8.6547,15.824175 h 10.54333 v -8.764722 h -10.54333 v 8.764722 z"
     id="path3972"
     style="fill:#ffffff" /></svg>