<?xml version="1.0" encoding="UTF-8" standalone="no"?>
<!-- Generator: Adobe Illustrator 17.1.0, SVG Export Plug-In . SVG Version: 6.00 Build 0)  -->

<svg
   xmlns:dc="http://purl.org/dc/elements/1.1/"
   xmlns:cc="http://creativecommons.org/ns#"
   xmlns:rdf="http://www.w3.org/1999/02/22-rdf-syntax-ns#"
   xmlns:svg="http://www.w3.org/2000/svg"
   xmlns="http://www.w3.org/2000/svg"
   xmlns:sodipodi="http://sodipodi.sourceforge.net/DTD/sodipodi-0.dtd"
   xmlns:inkscape="http://www.inkscape.org/namespaces/inkscape"
   version="1.1"
   id="Layer_1"
   x="0px"
   y="0px"
   viewBox="0 0 285 120"
   enable-background="new 0 0 1224 792"
   xml:space="preserve"
   inkscape:version="0.48.5 r10040"
   width="100%"
   height="100%"
   sodipodi:docname="Execution.svg"><metadata
     id="metadata10"><rdf:RDF><cc:Work
         rdf:about=""><dc:format>image/svg+xml</dc:format><dc:type
           rdf:resource="http://purl.org/dc/dcmitype/StillImage" /><dc:title></dc:title></cc:Work></rdf:RDF></metadata><defs
     id="defs8" /><sodipodi:namedview
     pagecolor="#ffffff"
     bordercolor="#666666"
     borderopacity="1"
     objecttolerance="10"
     gridtolerance="10"
     guidetolerance="10"
     inkscape:pageopacity="0"
     inkscape:pageshadow="2"
     inkscape:window-width="1301"
     inkscape:window-height="744"
     id="namedview6"
     showgrid="false"
     inkscape:zoom="1.9084967"
     inkscape:cx="119.23139"
     inkscape:cy="90.020502"
     inkscape:window-x="65"
     inkscape:window-y="24"
     inkscape:window-maximized="1"
     inkscape:current-layer="Layer_1" /><g
     id="imagenes"
     transform="translate(1.1125768,-652.48815)" /><rect
     style="fill:#263248;fill-opacity:1;fill-rule:evenodd;stroke:#263248;stroke-width:51.2746582;stroke-linecap:butt;stroke-linejoin:round;stroke-miterlimit:4;stroke-opacity:1;stroke-dasharray:none"
     id="rect2983"
     width="233.72534"
     height="68.725342"
     x="25.637329"
     y="25.637329" /><path
     d="m 161.42387,104.87384 c -0.5211,-0.32755 -2.14395,-0.74442 -2.5906,-1.08686 l -9.1564,6.01493 -7.44424,-7.44423 6.40204,-10.198599 c -0.23821,-0.43177 -0.19355,-0.50621 -0.40199,-0.96776 l -11.79166,-2.09926 0.0446,-11.47902 8.60553,-1.48883 -4.28788,-4.18367 c -3.57323,2.91814 -7.95044,4.6452 -12.62541,4.6452 0,0 -0.0149,0 -0.0149,0 0,0 -0.0149,0 -0.0149,0 -4.42188,0 -8.56087,-1.5484 -12.01499,-4.16877 0,0 0,0 0,0 l -4.36232,4.16877 h -8.53111 c -3.930559,0 -7.012472,1.33996 -9.409512,4.1241 -7.012468,8.09934 -5.836279,25.548619 -5.285406,30.893579 h 74.159458 l -1.28041,-6.72958 z M 110.41599,54.997472 c 0.56577,4.868529 2.60548,9.201069 5.58317,12.372319 0.62532,0.66998 1.28041,1.2804 1.98018,1.83127 0.89329,0.71464 1.83127,1.32508 2.8288,1.84617 2.24816,1.1613 4.71965,1.83128 7.3549,1.83128 2.63526,0 5.10675,-0.66998 7.3549,-1.83128 0.99753,-0.52109 1.9355,-1.13153 2.8288,-1.84617 0.69976,-0.56576 1.36974,-1.17619 1.99506,-1.84617 2.96281,-3.17123 5.00252,-7.459123 5.56829,-12.297872 0.0595,0 0.10422,0.01487 0.16377,0.01487 3.0968,0 5.61295,-2.888368 5.61295,-6.446716 0,-2.158828 -0.92309,-4.049662 -2.3375,-5.225851 h -41.41969 c -1.41441,1.176189 -2.3375,3.067023 -2.3375,5.225851 0,3.27547 2.09928,5.940507 4.82387,6.372273 z m 86.4722,30.744669 v -4.95785 l -10.31771,-1.86106 c -0.46154,-1.92061 -1.22085,-3.70723 -2.21837,-5.34495 l 6.00005,-8.57577 -3.51368,-3.51367 -8.60553,5.98516 c -1.63774,-0.99753 -3.43925,-1.75683 -5.34496,-2.20349 L 171.0567,54.967692 h -4.95785 l -1.86106,10.317709 c -1.92061,0.46153 -3.70723,1.22085 -5.34497,2.21838 l -8.57575,-6.00006 -3.51367,3.51369 5.98516,8.60553 c -0.99753,1.63773 -1.75685,3.43923 -2.2035,5.34496 l -10.30281,1.83128 v 4.95786 l 10.3177,1.86105 c 0.46154,1.92062 1.22085,3.70724 2.21839,5.34496 l -6.01494,8.575759 3.51367,3.51368 8.60553,-5.985153 c 1.63774,0.997523 3.43924,1.756833 5.34496,2.203483 l 1.83129,10.30282 h 4.95785 l 1.86107,-10.3177 c 1.92061,-0.46155 3.70722,-1.22086 5.34496,-2.218383 l 8.57575,6.000053 3.51368,-3.51369 -5.98517,-8.605529 c 0.99754,-1.63773 1.75684,-3.43923 2.20349,-5.34496 l 10.31771,-1.83129 z m -28.31786,5.18119 c -4.22833,0 -7.65267,-3.42434 -7.65267,-7.65266 0,-4.22833 3.42434,-7.65267 7.65267,-7.65267 4.22833,0 7.65267,3.42434 7.65267,7.65267 0,4.22832 -3.42434,7.65266 -7.65267,7.65266 z m -48.2684,-75.142089 c -6.1936,3.15635 -11.07701,9.46907 -12.92318,15.603113 l -0.41689,1.310193 h -3.39457 v 7.444226 h 3.69235 5.24073 2.2035 28.70495 2.14394 8.15889 v -0.357322 -7.086904 h -3.33502 l -0.41688,-1.310193 c -1.84617,-6.134043 -6.72959,-12.387203 -12.92319,-15.543553 v 13.995158 1.965277 c 0,0.119095 0,0.178667 0,0.238215 -0.0596,0.655096 -0.17867,1.250633 -0.47643,1.846169 -0.77419,1.488848 -2.32259,2.560814 -4.10921,2.560814 h -0.95286 -6.55093 c -1.6675,0 -3.15635,-0.893311 -3.93055,-2.203492 -0.35732,-0.535989 -0.53599,-1.131526 -0.6551,-1.786609 -0.0596,-0.238215 -0.0596,-0.416882 -0.0596,-0.655097 V 30.133735 15.781242 z m 4.6452,18.699916 h 7.44424 c 1.07197,0 1.96528,-0.595537 2.44171,-1.488848 0.23821,-0.416869 0.35732,-0.833751 0.35732,-1.31018 v -0.53599 -2.203491 -14.054717 -2.02482 -0.7742 c 0,-0.47643 -0.1191,-0.89332 -0.23822,-1.31019 -0.53598,-1.3697406 -1.90573,-2.3821501 -3.45412,-2.3821501 h -6.55093 c -1.42929,0 -2.62037,1.0719595 -2.73948,2.4417001 0,0.1191 -0.0595,0.23822 -0.0595,0.35732 v 1.66752 2.02482 14.292931 2.263052 0.238215 c 0,0.595536 0.17865,1.131526 0.47643,1.607955 0.53599,0.714644 1.36974,1.191073 2.3226,1.191073 z"
     id="path4"
     style="fill:#ffffff;fill-opacity:1"
     inkscape:connector-curvature="0" /></svg>