<?xml version="1.0" encoding="UTF-8" standalone="no"?>
<!-- Generator: Adobe Illustrator 17.1.0, SVG Export Plug-In . SVG Version: 6.00 Build 0)  -->

<svg
   xmlns:dc="http://purl.org/dc/elements/1.1/"
   xmlns:cc="http://creativecommons.org/ns#"
   xmlns:rdf="http://www.w3.org/1999/02/22-rdf-syntax-ns#"
   xmlns:svg="http://www.w3.org/2000/svg"
   xmlns="http://www.w3.org/2000/svg"
   xmlns:sodipodi="http://sodipodi.sourceforge.net/DTD/sodipodi-0.dtd"
   xmlns:inkscape="http://www.inkscape.org/namespaces/inkscape"
   version="1.1"
   id="Layer_1"
   x="0px"
   y="0px"
   viewBox="0 0 285 120"
   enable-background="new 0 0 1224 792"
   xml:space="preserve"
   inkscape:version="0.48.5 r10040"
   width="100%"
   height="100%"
   sodipodi:docname="Design.svg"><metadata
     id="metadata10"><rdf:RDF><cc:Work
         rdf:about=""><dc:format>image/svg+xml</dc:format><dc:type
           rdf:resource="http://purl.org/dc/dcmitype/StillImage" /><dc:title></dc:title></cc:Work></rdf:RDF></metadata><defs
     id="defs8" /><sodipodi:namedview
     pagecolor="#ffffff"
     bordercolor="#666666"
     borderopacity="1"
     objecttolerance="10"
     gridtolerance="10"
     guidetolerance="10"
     inkscape:pageopacity="0"
     inkscape:pageshadow="2"
     inkscape:window-width="1301"
     inkscape:window-height="744"
     id="namedview6"
     showgrid="false"
     inkscape:zoom="0.47712418"
     inkscape:cx="36.763257"
     inkscape:cy="187.14459"
     inkscape:window-x="65"
     inkscape:window-y="24"
     inkscape:window-maximized="1"
     inkscape:current-layer="Layer_1" /><g
     id="imagenes"
     transform="translate(1.1125768,-652.48815)" /><rect
     style="fill:#263248;fill-opacity:1;fill-rule:evenodd;stroke:#263248;stroke-width:51.2746582;stroke-linecap:butt;stroke-linejoin:round;stroke-miterlimit:4;stroke-opacity:1;stroke-dasharray:none"
     id="rect2983"
     width="233.72534"
     height="68.725342"
     x="25.637329"
     y="25.637329" /><g
     transform="matrix(0.23097131,0,0,0.23097131,82.824289,1.8421171)"
     id="g4057"
     style="fill:#ffffff"><path
       inkscape:connector-curvature="0"
       d="m 437.395,241.521 c -12.438,-0.003 -24.01,3.457 -33.869,9.468 -3.71,2.262 -8.353,2.345 -12.141,0.216 -3.787,-2.129 -6.12,-6.137 -6.12,-10.482 v -78.158 c 0,-12.027 -10.111,-21.7 -22.139,-21.7 h -95.749 c -4.252,0 -8.187,-2.248 -10.348,-5.909 -2.161,-3.662 -2.23,-8.196 -0.172,-11.917 5.22,-9.429 8.19,-20.296 8.19,-31.821 0,-36.233 -29.373,-65.627 -65.617,-65.627 -36.232,0 -65.601,29.404 -65.601,65.638 0,11.523 2.97,22.385 8.187,31.811 2.061,3.723 1.999,8.258 -0.163,11.923 -2.163,3.665 -6.102,5.902 -10.356,5.902 H 35.751 c -12.032,0 -22.013,9.673 -22.013,21.7 v 76.237 c 0,4.231 2.226,8.15 5.859,10.318 3.633,2.168 8.143,2.27 11.864,0.257 9.267,-5.012 19.876,-7.858 31.151,-7.855 36.239,-0.005 65.612,29.378 65.612,65.612 0,36.238 -29.373,65.616 -65.612,65.606 -11.276,0 -21.885,-2.846 -31.152,-7.857 -3.725,-2.014 -8.234,-1.92 -11.871,0.25 -3.636,2.17 -5.852,6.092 -5.852,10.326 v 80.76 c 0,12.033 9.98,21.784 22.013,21.784 h 327.375 c 12.027,0 22.139,-9.751 22.139,-21.784 v -82.681 c 0,-4.342 2.343,-8.346 6.127,-10.474 3.784,-2.128 8.426,-2.053 12.134,0.207 9.858,6.01 21.432,9.469 33.869,9.469 36.239,0.01 65.606,-29.368 65.606,-65.606 10e-4,-36.235 -29.366,-65.618 -65.605,-65.613 z"
       id="path4059"
       style="fill:#ffffff" /></g></svg>